<svg version="1.0" xmlns="http://www.w3.org/2000/svg" width="300" height="200" viewBox="0 0 262.000000 243.000000">
<g transform="translate(0.000000,243.000000) scale(0.100000,-0.100000)">
<path d="M1050 2416 c0 -4 47 -87 105 -185 107 -181 123 -224 85 -236 -21 -7
-133 20 -235 55 -141 49 -309 70 -613 76 -158 4 -285 4 -282 1 3 -3 50 -23
105 -46 87 -35 96 -40 65 -41 -31 -2 -21 -8 92 -63 141 -69 156 -79 103 -67
-46 10 -41 5 43 -43 47 -27 58 -37 37 -32 -28 6 -26 3 32 -57 48 -49 79 -96
143 -218 45 -85 89 -163 98 -174 10 -10 59 -50 110 -88 82 -61 104 -72 174
-89 43 -10 101 -19 127 -19 47 0 49 -1 54 -32 11 -71 -115 -224 -255 -312 -67
-41 -101 -53 -334 -115 -255 -68 -396 -93 -599 -108 l-90 -6 95 -24 c71 -17
136 -25 255 -30 88 -3 170 -9 182 -14 26 -10 44 -64 34 -107 -3 -16 -22 -42
-41 -58 -92 -75 -238 -215 -289 -279 -61 -75 -80 -101 -65 -93 287 161 455
289 710 539 175 171 180 173 387 171 377 -4 462 20 717 201 183 131 266 198
298 241 12 17 35 37 49 45 15 8 57 36 94 62 36 27 88 58 115 70 l49 22 -45 13
c-38 12 -49 21 -69 59 -27 50 -68 79 -164 116 -52 20 -64 21 -124 11 -38 -6
-78 -20 -93 -32 -14 -11 -37 -27 -52 -35 -25 -14 -29 -14 -47 4 -11 11 -22 41
-26 72 -19 145 -133 330 -266 434 -35 28 -102 86 -149 131 -58 54 -117 98
-185 136 -151 85 -335 164 -335 144z"/>
</g>
</svg>
