<svg version="1.0" xmlns="http://www.w3.org/2000/svg"
 width="542.000000pt" height="682.000000pt" viewBox="0 0 542.000000 682.000000" fill="aqua">

<g transform="translate(0.000000,682.000000) scale(0.100000,-0.100000)">
<path d="M2480 6414 c-232 -29 -542 -144 -736 -274 -214 -144 -409 -346 -512
-530 -40 -73 -97 -238 -124 -364 -19 -89 -22 -132 -22 -351 -1 -217 2 -265 21
-366 33 -170 55 -235 151 -434 l87 -180 0 -100 c-1 -55 -5 -152 -9 -216 -11
-143 -5 -175 40 -228 69 -80 186 -122 393 -140 183 -17 220 -29 253 -81 29
-46 29 -91 2 -235 -14 -80 -23 -154 -19 -172 16 -84 177 -165 429 -215 257
-51 616 -12 819 88 142 70 160 109 126 273 -43 206 -27 282 66 313 28 9 121
23 207 32 208 22 303 56 372 137 45 53 51 85 40 228 -4 64 -8 161 -9 216 l0
100 82 165 c142 286 178 451 177 810 0 264 -11 348 -68 524 -78 238 -200 410
-425 600 -219 185 -484 315 -773 378 -74 16 -137 21 -313 23 -121 2 -236 1
-255 -1z m-211 -1965 c63 -13 138 -78 172 -146 21 -42 24 -63 24 -168 0 -104
-3 -125 -22 -160 -70 -131 -267 -218 -493 -219 -157 -1 -249 38 -304 128 -27
42 -31 59 -34 141 -9 195 68 314 248 385 110 43 304 62 409 39z m1189 -14
c149 -36 269 -129 311 -240 20 -51 22 -75 19 -161 -3 -92 -6 -106 -34 -150
-57 -93 -147 -130 -314 -127 -225 3 -414 88 -483 218 -19 34 -22 56 -22 155 0
122 8 155 53 223 28 43 96 87 151 98 53 12 246 2 319 -16z m-715 -703 c20 -22
115 -223 147 -310 39 -108 2 -145 -120 -122 -58 11 -82 11 -140 0 -121 -23
-156 13 -119 123 26 77 124 285 146 309 21 23 65 23 86 0z"/>
<path d="M1060 3121 c-89 -18 -167 -82 -209 -171 -25 -52 -26 -62 -23 -194 3
-161 6 -154 -99 -222 -112 -72 -158 -152 -159 -274 0 -180 129 -303 320 -304
64 0 96 7 220 49 250 85 286 78 888 -176 227 -96 246 -107 210 -122 -7 -3 -65
-29 -128 -57 -177 -79 -443 -184 -567 -224 -158 -51 -198 -49 -404 15 -150 46
-171 50 -239 46 -96 -5 -167 -35 -221 -94 -59 -65 -79 -114 -79 -203 0 -124
49 -206 172 -287 38 -25 73 -53 78 -63 6 -10 9 -81 7 -157 -2 -127 0 -142 22
-191 50 -112 166 -180 287 -169 74 7 129 33 191 90 57 52 84 99 128 222 20 55
48 122 63 149 77 142 224 235 939 598 l242 123 108 -53 c170 -84 618 -319 723
-379 150 -87 256 -160 296 -206 40 -46 87 -140 129 -261 41 -115 96 -191 172
-236 174 -104 381 -26 438 163 13 41 14 77 9 172 -7 140 -8 139 96 208 71 47
135 122 150 177 5 19 10 67 10 106 0 85 -30 153 -92 209 -69 63 -119 80 -228
79 -86 0 -109 -5 -236 -47 -182 -60 -229 -62 -387 -11 -171 55 -680 263 -705
289 -3 3 -1 10 5 16 22 22 563 245 713 294 135 45 219 40 390 -19 165 -57 215
-64 300 -42 101 26 179 87 220 172 29 59 28 189 -1 247 -36 69 -68 104 -138
150 -109 73 -107 67 -103 227 3 131 2 141 -22 193 -29 60 -98 131 -151 153
-20 8 -67 14 -110 14 -61 0 -85 -5 -126 -25 -109 -56 -159 -123 -231 -315 -59
-155 -99 -213 -195 -281 -149 -106 -398 -245 -810 -452 l-222 -112 -138 68
c-213 106 -582 302 -709 375 -263 155 -310 203 -379 393 -48 134 -94 217 -146
264 -74 67 -186 103 -269 86z"/>
</g>
<text font-family="Calibri" x="270" y="555" font-size="155" font-weight="bold" fill="white" stroke= "black" stroke-width="5" text-anchor="middle"><![CDATA[PJS]]></text>

</svg>
