<svg fill="green" 
 width="300" height="200" viewBox="0 0 200 205" xmlns="http://www.w3.org/2000/svg">
<g transform="translate(0.000000,205.000000) scale(0.100000,-0.100000)"><path d="M1728 1981 c-4 -58 -14 -88 -56 -173 -70 -144 -151 -249 -322 -423 -137 -138 -149 -154 -155 -195 -9 -60 6 -95 49 -115 36 -17 53 -54 19 -40 -122 49 -146 55 -231 55 -98 0 -173 -18 -240 -57 l-44 -25 4 24 c2 13 14 28 29 35 42 20 53 41 53 100 l1 55 -150 146 c-315 307 -426 459 -431 591 -2 34 -5 65 -8 68 -11 11 -58 -78 -65 -124 l-8 -48 -8 38 c-4 21 -12 36 -19 34 -22 -7 -48 -68 -49 -116 -2 -40 -5 -47 -15 -38 -35 29 -44 -92 -13 -174 19 -49 19 -50 1 -34 -60 54 -50 -80 12 -168 21 -30 20 -48 -2 -22 -48 57 -35 -46 14 -115 25 -35 32 -50 21 -50 -28 0 -11 -51 34 -103 18 -20 29 -41 25 -50 -8 -21 50 -84 91 -98 27 -10 32 -16 24 -26 -19 -22 -2 -41 50 -59 27 -10 47 -22 44 -27 -2 -4 1 -15 8 -23 9 -12 28 -15 68 -13 31 2 62 0 69 -4 7 -5 26 -6 42 -2 29 6 29 6 23 -31 -4 -21 -12 -49 -20 -64 -7 -14 -13 -48 -13 -76 0 -41 6 -59 30 -92 17 -23 35 -42 40 -42 6 0 10 -7 10 -16 0 -8 9 -43 20 -77 11 -34 22 -74 25 -89 3 -15 13 -29 23 -33 9 -3 30 -33 46 -66 40 -86 147 -194 206 -209 135 -36 252 37 338 210 20 41 40 76 43 78 30 14 41 33 44 73 3 66 27 142 51 161 31 26 47 71 41 120 -13 97 -25 167 -31 177 -5 7 6 11 33 11 23 0 41 4 41 10 0 5 22 9 48 9 49 -2 92 13 92 31 0 5 18 19 40 30 23 12 44 29 47 38 4 9 24 32 44 50 25 21 41 45 45 67 3 19 13 40 21 46 29 25 67 119 47 119 -3 0 -24 -13 -47 -29 -87 -59 -219 -116 -254 -109 -10 2 5 11 36 22 128 42 267 128 299 185 28 49 31 137 6 127 -18 -7 -17 -2 10 69 16 41 21 117 9 128 -3 4 -15 -1 -26 -10 -19 -17 -20 -17 -8 4 16 31 14 155 -3 178 -12 17 -14 16 -26 -21 -18 -56 -34 -69 -23 -19 17 82 -4 195 -36 195 -4 0 -11 -23 -14 -52 -4 -28 -11 -56 -17 -62 -8 -8 -9 1 -5 29 8 50 -10 122 -38 153 -11 12 -24 22 -27 22 -4 0 -10 -31 -12 -69z m27 -77 c-8 -56 -71 -184 -130 -264 -70 -94 -245 -308 -294 -358 -65 -67 -79 -125 -38 -165 56 -55 56 -76 -1 -125 l-27 -23 24 -19 c17 -15 19 -20 8 -20 -9 0 -23 10 -31 22 -15 21 -14 24 14 53 17 17 30 38 30 46 0 19 -24 41 -62 57 -26 11 -28 16 -28 66 l0 54 121 118 c109 108 240 262 311 369 38 56 88 187 88 227 0 19 3 38 8 42 11 11 15 -31 7 -80z m-1500 -85 c18 -52 61 -131 139 -252 31 -48 36 -63 29 -84 -8 -24 -13 -20 -85 80 -42 58 -85 122 -96 144 -27 53 -45 148 -38 201 9 66 20 73 27 16 4 -28 15 -75 24 -105z m-91 14 c27 -85 65 -155 150 -277 42 -59 86 -125 96 -147 20 -38 26 -58 13 -46 -3 4 -12 2 -18 -3 -31 -25 -249 258 -280 363 -8 28 -15 60 -15 71 0 31 20 96 29 96 4 0 15 -26 25 -57z m371 -346 c79 -84 173 -181 209 -217 65 -63 66 -66 66 -116 0 -51 -1 -53 -34 -64 -44 -14 -63 -53 -41 -86 8 -13 22 -24 30 -24 17 0 28 -16 21 -29 -4 -5 -24 7 -46 26 -55 50 -55 83 0 118 33 21 40 31 40 58 0 42 -17 64 -167 217 -131 135 -242 265 -292 344 -49 79 -36 76 20 -3 28 -40 115 -141 194 -224z m-415 181 c54 -92 130 -198 188 -263 54 -60 106 -135 99 -141 -17 -17 -179 112 -232 184 -65 89 -97 160 -103 228 -2 35 -2 64 0 64 3 0 25 -33 48 -72z m70 -272 c30 -32 82 -76 115 -99 74 -49 115 -86 115 -104 0 -22 -28 -15 -103 25 -132 69 -268 226 -267 308 1 29 1 28 43 -21 23 -27 67 -76 97 -109z m288 -14 c-5 -28 -38 16 -38 51 l0 32 21 -34 c11 -18 19 -40 17 -49z m1096 21 c-6 -23 -4 -25 14 -21 32 9 37 -23 13 -78 -25 -56 -25 -58 -6 -50 23 8 18 -22 -5 -34 -16 -9 -20 -8 -20 5 0 8 -5 15 -10 15 -6 0 -8 11 -4 25 3 14 1 32 -6 39 -9 11 -9 20 0 36 7 12 10 30 7 40 -4 16 8 50 19 50 2 0 1 -12 -2 -27z m-1039 -13 c18 -19 17 -20 -3 -20 -15 0 -22 6 -22 20 0 11 2 20 3 20 2 0 12 -9 22 -20z m-39 -38 c19 -13 74 -185 63 -199 -7 -8 -7 -19 1 -34 10 -17 9 -23 -1 -30 -20 -12 -39 17 -39 59 0 35 0 35 -21 16 -17 -16 -22 -16 -29 -4 -6 8 -10 24 -10 34 0 18 1 19 20 1 20 -18 20 -18 14 13 -4 21 -3 32 5 32 6 0 11 5 11 10 0 6 -6 10 -13 10 -16 0 -33 27 -42 68 -5 27 -4 32 12 32 10 0 23 -4 29 -8z m-181 -154 c62 -31 85 -49 93 -70 5 -15 6 -28 2 -28 -31 0 -183 67 -225 98 -45 34 -115 121 -115 143 0 5 37 -16 82 -46 45 -30 118 -74 163 -97z m126 116 c3 -16 11 -39 17 -51 15 -27 15 -43 2 -43 -14 0 -49 78 -50 108 0 33 23 22 31 -14z m128 -1 c6 -20 8 -39 6 -42 -9 -8 -25 14 -34 47 -8 25 -7 32 4 32 8 0 19 -17 24 -37z m1215 -24 c-20 -23 -112 -87 -154 -109 -40 -20 -12 4 80 69 95 67 101 70 74 40z m-268 -52 c3 -8 0 -26 -5 -40 -7 -18 -7 -27 -1 -27 6 0 13 14 17 30 9 49 29 37 23 -15 -2 -20 -2 -20 19 -1 12 11 24 17 27 13 9 -8 -15 -73 -32 -87 -17 -15 -19 -31 -3 -27 22 4 20 -21 -4 -49 -35 -41 -16 -54 91 -62 l87 -7 -28 -19 c-30 -21 -100 -26 -149 -13 -17 4 -28 3 -28 -2 0 -6 17 -13 38 -16 20 -4 46 -9 56 -12 19 -5 19 -6 1 -19 -22 -17 -47 -17 -97 -3 -28 7 -38 15 -38 30 0 11 7 22 15 25 8 4 15 13 15 20 0 12 -4 12 -21 3 -12 -6 -40 -17 -63 -24 -22 -7 -33 -13 -23 -14 29 -2 19 -21 -11 -21 -30 0 -81 29 -51 30 18 0 94 68 86 77 -4 3 5 19 18 35 30 36 31 48 5 48 -20 0 -20 0 1 29 15 20 19 35 14 48 -10 22 -7 54 7 71 14 16 27 15 34 -1z m-66 -29 c0 -17 -18 -44 -24 -37 -8 7 5 49 15 49 5 0 9 -6 9 -12z m-1272 -42 c26 -13 87 -38 135 -56 56 -21 95 -42 108 -59 17 -21 18 -27 6 -29 -25 -5 -145 27 -195 52 -47 24 -112 86 -112 106 0 14 5 13 58 -14z m272 -5 c0 -5 3 -18 7 -28 6 -16 5 -16 -10 -4 -19 15 -23 41 -7 41 6 0 10 -4 10 -9z m999 -35 c-9 -8 -10 -7 -5 7 3 10 7 24 7 30 1 7 3 4 6 -7 3 -10 -1 -23 -8 -30z m-923 -39 c35 -38 36 -44 4 -49 -25 -4 -32 0 -44 26 -24 49 2 64 40 23z m84 -17 c0 -5 -9 -10 -20 -10 -11 0 -20 5 -20 10 0 6 9 10 20 10 11 0 20 -4 20 -10z m1200 -3 c0 -15 -34 -49 -67 -66 -24 -12 -161 -15 -180 -3 -8 5 -6 13 7 30 15 18 29 22 77 23 32 0 78 6 103 13 61 18 60 18 60 3z m-710 -15 c19 -9 41 -29 50 -44 13 -25 13 -31 0 -55 -10 -18 -28 -30 -53 -36 -20 -5 -37 -12 -37 -16 0 -4 42 -12 94 -19 89 -11 184 -40 214 -64 23 -20 6 -18 -37 3 -24 11 -58 23 -75 26 -29 4 -32 2 -41 -29 l-10 -33 -125 3 c-200 5 -355 -33 -402 -98 -11 -16 -19 -44 -20 -73 -1 -50 -18 -67 -18 -18 0 25 -3 28 -25 23 -57 -10 -37 77 34 148 31 31 67 55 106 69 67 25 87 39 79 53 -3 5 2 20 11 34 11 17 15 41 13 67 -3 39 -1 43 32 59 48 24 163 24 210 0z m-615 -22 c9 -16 22 -30 31 -30 17 0 29 -24 19 -40 -15 -25 -75 42 -75 85 0 23 8 18 25 -15z m-183 -4 c94 -23 158 -51 158 -69 0 -6 -30 -8 -67 -5 -99 7 -193 53 -193 92 0 8 -8 9 102 -18z m313 4 c3 -5 2 -10 -4 -10 -5 0 -13 5 -16 10 -3 6 -2 10 4 10 5 0 13 -4 16 -10z m631 -35 c-34 -25 -17 -49 80 -112 16 -10 13 -10 -12 -2 -43 14 -114 76 -114 99 0 22 27 40 48 32 13 -4 12 -7 -2 -17z m-643 -3 c19 -21 8 -46 -16 -36 -9 3 -23 17 -32 30 -15 23 -15 24 8 24 13 0 31 -8 40 -18z m233 -7 c11 -29 -6 -63 -48 -94 -60 -44 -67 -38 -19 14 45 49 50 69 24 84 -15 9 -14 10 10 11 16 0 30 -7 33 -15z m-246 -54 c0 -4 -12 -13 -27 -20 -35 -16 -53 1 -23 22 21 15 50 13 50 -2z m-110 -21 l25 -13 -30 -9 c-58 -17 -175 8 -159 34 9 14 132 5 164 -12z m905 -30 c3 -5 1 -10 -4 -10 -6 0 -11 5 -11 10 0 6 2 10 4 10 3 0 8 -4 11 -10z m110 -10 c4 -6 -6 -10 -22 -10 -22 0 -25 2 -13 10 19 12 27 12 35 0z m-322 -140 c115 -36 111 -68 -7 -56 -59 6 -63 5 -89 -22 -24 -25 -26 -32 -17 -62 6 -20 7 -67 4 -107 -7 -77 2 -126 16 -88 7 19 7 19 19 -3 14 -25 6 -46 -15 -38 -7 3 -16 1 -19 -4 -8 -14 -65 -13 -65 1 0 6 -9 8 -21 4 -19 -6 -21 -4 -17 19 6 31 -8 35 -17 6 -8 -25 11 -51 34 -48 10 2 20 -9 27 -32 14 -41 44 -54 44 -18 1 22 1 22 15 4 8 -11 12 -23 7 -28 -4 -4 -42 -9 -85 -10 -50 -2 -78 -7 -81 -15 -4 -8 5 -12 27 -11 49 1 97 -12 97 -28 0 -8 -10 -14 -23 -14 -20 0 -23 -4 -19 -30 4 -26 8 -30 38 -30 35 0 67 -31 57 -56 -9 -24 -65 -35 -120 -24 -43 9 -60 21 -107 70 -63 66 -119 173 -137 260 -10 46 -9 61 4 92 22 53 53 70 102 57 21 -6 55 -8 74 -4 31 6 62 11 94 14 14 2 7 96 -9 119 -14 20 -23 22 -105 22 -62 0 -99 -5 -120 -16 -37 -19 -49 -11 -25 15 21 23 103 59 159 71 82 16 211 11 280 -10z m87 -205 c22 -27 -13 -140 -54 -174 -13 -11 -19 -11 -31 -1 -34 28 -57 73 -64 124 l-7 54 37 -5 c20 -3 45 0 55 6 27 15 49 14 64 -4z"/></g>
<text fill="purple" font-family="Calibri" x="100" y="60" font-size="50" font-weight="bold" stroke= "black" stroke-width="2" text-anchor="middle">
<![CDATA[MCR]]></text></svg>