<svg fill="Midnightblue" 
 width="200px" height="300px" viewBox="0 0 200 206" xmlns="http://www.w3.org/2000/svg">
<g transform="translate(0.000000,206.000000) scale(0.100000,-0.100000)"><path d="M860 2041 c-315 -58 -598 -271 -740 -555 -180 -362 -150 -787 80 -1120 105 -152 350 -356 427 -356 42 0 83 38 83 75 0 32 -35 67 -116 115 -86 51 -239 209 -298 307 -154 260 -179 585 -64 850 160 370 553 594 926 529 415 -72 701 -419 679 -821 -17 -323 -231 -590 -537 -671 -145 -38 -336 -14 -474 59 -74 39 -182 139 -233 215 -96 145 -124 347 -69 506 36 106 69 159 142 231 182 180 457 204 655 58 260 -192 239 -584 -38 -719 -51 -25 -69 -29 -148 -29 -78 0 -97 4 -140 27 -168 89 -220 286 -110 416 79 94 219 95 283 2 32 -47 29 -94 -7 -131 -33 -33 -56 -36 -89 -13 -48 33 -72 -18 -32 -68 64 -82 200 -51 255 58 27 53 27 154 1 208 -27 54 -80 104 -140 132 -63 30 -178 32 -243 6 -142 -58 -233 -196 -233 -356 0 -242 204 -436 460 -436 139 0 251 48 356 154 141 142 194 335 145 528 -59 228 -228 394 -461 454 -98 25 -272 16 -367 -20 -183 -68 -312 -183 -398 -356 -55 -111 -69 -179 -69 -325 0 -108 4 -143 23 -205 103 -331 377 -548 718 -567 239 -14 457 66 630 230 229 218 324 530 258 848 -72 343 -330 614 -685 719 -59 17 -107 23 -230 25 -85 2 -175 0 -200 -4z"/></g><text font-family="Calibri" x="105" y="125" font-size="100" font-weight="bold" fill="white" 
stroke= "black" stroke-width="2" text-anchor="middle">
<![CDATA[SPR]]></text></svg>